Coordinates
version=1
nRows=20
nColumns=34
inDegrees=yes

Units are S.I. units (second, meters, Newtons, ...)
If the header above contains a line with 'inDegrees', this indicates whether rotational values are in degrees (yes) or radians (no).

endheader
time	pelvis_tilt	pelvis_list	pelvis_rotation	pelvis_tx	pelvis_ty	pelvis_tz	hip_flexion_r	hip_adduction_r	hip_rotation_r	knee_angle_r	ankle_angle_r	subtalar_angle_r	mtp_angle_r	hip_flexion_l	hip_adduction_l	hip_rotation_l	knee_angle_l	ankle_angle_l	subtalar_angle_l	mtp_angle_l	lumbar_extension	lumbar_bending	lumbar_rotation	arm_flex_r	arm_add_r	arm_rot_r	elbow_flex_r	pro_sup_r	arm_flex_l	arm_add_l	arm_rot_l	elbow_flex_l	pro_sup_l
      3.01666670	     -2.32662761	      0.94109818	     -5.90228943	      1.69182542	      0.87690452	     -0.04305409	     -0.40004936	     -4.81185591	      1.45962459	      0.44962589	      1.53173514	    -23.31733176	      0.00000000	      0.47842687	     -1.51118728	      4.53884385	      2.06392347	      2.03971546	    -14.59679715	      0.00000000	     -4.81458177	      0.31366433	      0.21716280	      9.45452171	     -8.56933561	     35.79353899	     82.62495228	     89.89544229	      9.37162902	     -7.04610684	     31.19713202	     72.01396550	     87.39211023
      3.03333330	     -2.39937437	      0.94265894	     -5.92116014	      1.69094272	      0.87737417	     -0.04384795	     -0.30278751	     -4.81301417	      1.42785063	      0.41001000	      1.48659276	    -23.27281878	      0.00000000	      0.54618649	     -1.49885512	      4.47018492	      1.96385470	      1.99818608	    -14.60438289	      0.00000000	     -4.94660211	      0.37289024	      0.18269579	      9.44120407	     -8.56762959	     35.73221509	     82.59133844	     89.87502259	      9.41119279	     -7.05965540	     31.16235720	     71.96270101	     87.37695743
      3.05000000	     -2.38522710	      0.92089931	     -5.92918374	      1.69014963	      0.87750150	     -0.04464851	     -0.28053194	     -4.82495377	      1.42453863	      0.39895706	      1.48379814	    -23.26942457	      0.00000000	      0.55129981	     -1.49481400	      4.46461409	      1.95794292	      1.99294073	    -14.60384210	      0.00000000	     -4.95202414	      0.37544040	      0.17769110	      9.43631147	     -8.56278415	     35.72959821	     82.59011692	     89.87348556	      9.41452609	     -7.05889984	     31.16055279	     71.95901496	     87.37579897
      3.06666670	     -2.49130642	      0.91945368	     -6.04791866	      1.68931676	      0.87681663	     -0.04499250	     -0.00328977	     -4.86855302	      1.33093451	      0.45966857	      1.29167072	    -23.02125892	      0.00000000	      0.70937639	     -1.47777921	      4.14057273	      1.92741675	      1.67227664	    -14.59632895	      0.00000000	     -5.15067217	      0.50316083	      0.04996876	      9.42779053	     -8.31554975	     35.56529020	     82.61220026	     89.79246878	      9.58225458	     -6.97512288	     31.07857453	     71.77533278	     87.31604812
      3.08333330	     -2.47407412	      0.89897458	     -6.05245002	      1.68912536	      0.87600462	     -0.04505976	      0.02634411	     -4.88892868	      1.32876658	      0.44082778	      1.29525161	    -23.02059334	      0.00000000	      0.71509057	     -1.47438259	      4.13853984	      1.92229955	      1.67120037	    -14.59684897	      0.00000000	     -5.16250701	      0.50731430	      0.04552030	      9.42215908	     -8.31784705	     35.56312664	     82.60968309	     89.79101235	      9.58295231	     -6.97477669	     31.07799409	     71.77144317	     87.31499597
      3.10000000	     -2.55852215	      0.92226456	     -6.16877658	      1.68864627	      0.87554508	     -0.04502148	      0.16195184	     -4.93777680	      1.31171282	      0.34259477	      1.31766763	    -23.00677643	      0.00000000	      0.80223812	     -1.42388293	      4.11070743	      1.87307823	      1.65713480	    -14.60365011	      0.00000000	     -5.33152714	      0.57136082	     -0.02429550	      9.39556360	     -8.34443058	     35.53342103	     82.58978640	     89.77869712	      9.63090154	     -6.96327877	     31.06853044	     71.74154432	     87.30642915
      3.11666670	     -2.66398046	      0.95040192	     -6.17294759	      1.68768628	      0.87557430	     -0.04517202	      0.33531170	     -4.96920743	      1.34612910	      0.30183603	      1.31678791	    -22.93583471	      0.00000000	      0.96551165	     -1.38408340	      4.03509245	      1.82880920	      1.61683382	    -14.61743829	      0.00000000	     -5.52142255	      0.62756476	     -0.05595589	      9.45167813	     -8.33029647	     35.46828195	     82.60194076	     89.75845568	      9.70781551	     -6.98034966	     31.03326257	     71.69706236	     87.29144792
      3.13333330	     -2.82351094	      0.95107265	     -6.32857782	      1.68612673	      0.87588986	     -0.04496412	      0.80966312	     -4.95021108	      1.40047186	      0.61669694	      1.35239554	    -22.64781248	      0.00000000	      1.34976472	     -1.39904554	      3.79291913	      2.10781995	      1.41538001	    -14.63669089	      0.00000000	     -5.58403923	      0.68818299	     -0.08709518	      9.64027043	     -8.13542795	     35.20650799	     82.79967247	     89.66207449	      9.88812625	     -6.99797050	     30.88820745	     71.57580280	     87.21655657
      3.15000000	     -2.92106169	      0.95870853	     -6.41289776	      1.68520729	      0.87621942	     -0.04465114	      0.95562659	     -4.95211345	      1.37991719	      0.54908878	      1.39505052	    -22.63436559	      0.00000000	      1.47337250	     -1.40428534	      3.79686678	      2.03140592	      1.43164832	    -14.63878124	      0.00000000	     -5.74289896	      0.72139486	     -0.10483913	      9.61287168	     -8.12297778	     35.18618325	     82.79856069	     89.64840342	      9.90572572	     -7.00174997	     30.87173892	     71.54480573	     87.20517263
      3.16666670	     -3.11320091	      0.93990137	     -6.44788230	      1.68396456	      0.87628903	     -0.04419047	      1.28642179	     -4.90318228	      1.43805856	      0.62775459	      1.42215005	    -22.49073981	      0.00000000	      1.76076210	     -1.46146874	      3.76546345	      1.97895981	      1.41402887	    -14.61298155	      0.00000000	     -5.92096124	      0.82639542	     -0.09979751	      9.74582036	     -7.91558948	     35.09715386	     82.91795851	     89.60967319	     10.10248970	     -6.98563867	     30.78506085	     71.51451328	     87.17125823
      3.18333330	     -3.71444948	      0.95184256	     -6.64302374	      1.68286794	      0.87545729	     -0.04353634	      2.30992782	     -4.82817273	      1.24708448	      1.13841224	      2.09867411	    -21.87123175	      0.00000000	      2.66190236	     -1.53442081	      3.51291662	      2.32982633	      1.56317051	    -14.52259898	      0.00000000	     -5.51084686	      0.93872269	      0.02636640	      9.56375341	     -7.76031560	     34.51560763	     83.42733686	     89.30466640	     10.15175425	     -6.81730419	     30.47981504	     71.42947441	     86.90718866
      3.20000000	     -3.85642749	      0.94128319	     -6.70525139	      1.68161249	      0.87501153	     -0.04335592	      2.48795227	     -4.76063066	      1.29308658	      1.01725049	      2.06091709	    -21.76454914	      0.00000000	      2.85671182	     -1.57781981	      3.54486439	      2.26151332	      1.51882257	    -14.46214492	      0.00000000	     -5.72349358	      0.97688690	      0.03960195	      9.79169590	     -7.58556863	     34.44788852	     83.47428931	     89.27889973	     10.41404932	     -6.79186981	     30.43429536	     71.44457738	     86.88553707
      3.21666670	     -4.00578363	      0.92338601	     -6.79140231	      1.67958627	      0.87473614	     -0.04411632	      2.72792833	     -4.68452729	      1.33373856	      0.94292183	      2.04934827	    -21.65622542	      0.00000000	      3.12078179	     -1.62927718	      3.50251063	      2.28909217	      1.46292952	    -14.41079298	      0.00000000	     -5.94503769	      1.04029749	      0.03642000	     10.19693839	     -7.31540204	     34.33016242	     83.56597535	     89.24736067	     10.84402550	     -6.70893274	     30.37761183	     71.51605246	     86.86100343
      3.23333330	     -4.12508677	      0.89245021	     -6.91121743	      1.67666521	      0.87511640	     -0.04549298	      3.12814740	     -4.61747115	      1.35885194	      1.14326134	      2.06602151	    -21.47503093	      0.00000000	      3.54396470	     -1.68125794	      3.35560463	      2.64146845	      1.38123547	    -14.33049227	      0.00000000	     -6.28756744	      1.13548660	      0.00083425	     10.76975016	     -6.96191368	     34.13322460	     83.69624875	     89.18419438	     11.43049042	     -6.59173866	     30.37345494	     71.67028032	     86.81553532
      3.25000000	     -4.35343843	      0.90768431	     -6.94188996	      1.67419115	      0.87532316	     -0.04701944	      3.45903496	     -4.61971936	      1.35914563	      0.99624845	      2.11936545	    -21.41347230	      0.00000000	      3.88254565	     -1.67394044	      3.28776895	      2.54604169	      1.39999737	    -14.30479778	      0.00000000	     -6.50947611	      1.18049262	     -0.05254136	     11.27722674	     -6.65784049	     34.04308118	     83.82170271	     89.15919986	     12.04578832	     -6.35760492	     30.35749688	     71.85935992	     86.79708999
      3.26666670	     -4.54578918	      0.91163988	     -7.04111903	      1.67139454	      0.87507178	     -0.04814202	      4.06974896	     -4.62561321	      1.32087357	      1.31104968	      2.08114366	    -21.20492951	      0.00000000	      4.52469934	     -1.67982945	      3.19055035	      3.03925668	      1.27746357	    -14.14445987	      0.00000000	     -6.93541887	      1.21804825	     -0.07674850	     12.16420257	     -6.18935715	     33.93674074	     84.10730117	     89.11168434	     13.00891167	     -6.10977025	     30.44364816	     72.24121616	     86.76163765
      3.28333330	     -5.08523263	      0.98270628	     -7.06428907	      1.66908600	      0.87419227	     -0.04878337	      5.08873445	     -4.68442289	      1.08137194	      1.69256275	      2.55655561	    -20.78505798	      0.00000000	      5.53335562	     -1.64517010	      2.94399096	      3.47710936	      1.68663906	    -13.89013222	      0.00000000	     -7.04928380	      1.30530482	     -0.07809620	     12.95083382	     -5.95983399	     34.21935595	     84.88276032	     88.96622509	     14.12681233	     -6.16081026	     31.31566304	     73.36983825	     86.60943929
      3.30000000	     -5.30871075	      0.99228598	     -7.07054287	      1.66676070	      0.87406244	     -0.04852481	      5.64287675	     -4.70392482	      0.95032367	      1.84054955	      2.47052405	    -20.61226111	      0.00000000	      6.10473852	     -1.64990346	      2.72947300	      3.72089861	      1.58444465	    -13.79621991	      0.00000000	     -7.43384048	      1.35865867	     -0.13409002	     13.95552926	     -5.45171055	     34.19355044	     85.19105982	     88.91467373	     15.48372903	     -5.81147203	     31.37306612	     73.86272490	     86.52664384
      3.31666670	     -5.65404065	      1.00576510	     -7.08662530	      1.66462913	      0.87274762	     -0.04780917	      6.38748318	     -4.67541681	      0.88116194	      2.13697737	      2.70836222	    -20.43094764	      0.00000000	      6.86779240	     -1.70493282	      2.62941560	      4.11459851	      1.78409975	    -13.61887020	      0.00000000	     -7.75314623	      1.38250578	     -0.13356512	     15.09379969	     -4.91460569	     34.37628925	     85.82102483	     88.83907895	     17.01757088	     -5.75142608	     31.92899459	     74.95322732	     86.33467032
      3.33333330	     -5.98888580	      1.01516448	     -7.06374068	      1.66287310	      0.87057659	     -0.04757373	      7.11238502	     -4.63134344	      0.79216403	      2.46484858	      2.86238333	    -20.33344483	      0.00000000	      7.60382972	     -1.78681481	      2.41679452	      4.49456616	      1.89476567	    -13.44461394	      0.00000000	     -8.07834603	      1.37039637	     -0.23155313	     16.28405496	     -4.21430915	     34.25159245	     86.36235547	     88.78918260	     18.69682987	     -5.58964418	     32.19829844	     75.95068121	     86.09559797
